<svg version="1.1" id="Layer_1" xmlns:x="ns_extend;" xmlns:i="ns_ai;" xmlns:graph="ns_graphs;" xmlns="http://www.w3.org/2000/svg" xmlns:xlink="http://www.w3.org/1999/xlink" x="0px" y="0px" viewBox="0 0 265.8 72" style="enable-background:new 0 0 265.8 72;" xml:space="preserve">
 <style type="text/css">
  .st0{fill:#03282C;}
	.st1{fill:#14E5C5;}
 </style>
 <metadata>
  <sfw xmlns="ns_sfw;">
   <slices>
   </slices>
   <sliceSourceBounds bottomLeftOrigin="true" height="72" width="265.8" x="367.1" y="99.5">
   </sliceSourceBounds>
  </sfw>
 </metadata>
 <g>
  <path class="st0" d="M22.6,60.5c-1-4.7-3.1-11.2-10.4-31.5H0l16.8,42h11.5l15.9-42h-12C25.3,48.9,23.4,55.2,22.6,60.5L22.6,60.5z">
  </path>
  <path class="st0" d="M65.9,28.1c-12.6,0-21.5,9.4-21.5,22c0,13,9.2,21.7,22.2,21.7c8.2,0,15.2-4.3,18.5-10.4l-8.4-4.6
		c-1.7,3.3-5.1,5.6-10,5.6c-5.8,0-10.4-3.7-10.9-8.8h31.6C87.9,36.7,78.6,28.1,65.9,28.1L65.9,28.1z M55.6,45.6
		c0.4-4.9,4.6-8.4,10.3-8.4s9.7,3.5,10,8.4L55.6,45.6z">
  </path>
  <path class="st0" d="M132.8,29h-11.3v42h11.3V29z">
  </path>
  <path class="st0" d="M187.8,19.7c1.7,0,3.4,0.3,5,0.7v-9.2c-2.3-0.7-4.7-1.1-7.2-1.1c-7.5,0-15,4-15,15.9v3h-16.5v-1.4
		c-0.6-6,1.8-8,5.8-8c1.7,0,3.4,0.3,5,0.7v-9.2c-2.3-0.7-4.7-1.1-7.2-1.1c-7.5,0-15,4-15,15.9v3h-4.9v8.9h4.9V71h11.3V37.9h16.5V71
		H182V37.9h10.8V29H182v-1.4C181.3,21.6,183.7,19.7,187.8,19.7z">
  </path>
  <path class="st0" d="M104.3,41.9v-1.6L103,29h-9.8v42h11.1V54c0-8.9,6.1-14.4,12.8-14.4V28.5C109.2,29.3,104.3,33.9,104.3,41.9
		L104.3,41.9z">
  </path>
  <path class="st0" d="M132.9,13.8h-11.5V23h11.5V13.8z">
  </path>
  <path class="st1" d="M242.8,28.6V57h0.1c1.9-14.3,10.3-23.7,22.9-28.1V0C251.3,2.5,242.8,11.8,242.8,28.6z">
  </path>
  <path class="st1" d="M215.8,52.9l23,19.1V34.1l-23-19.1V52.9z">
  </path>
 </g>
</svg>